{"title":"Kirot aka A Female Assassin (2009) (DivX) RETAIL 2Lions-Team","uid":5747482,"size":733796686,"categoryP":"video","categoryS":"movies","magnet":"?xt=urn:btih:6681c011c4da4f22c169ea2e17c7cb26caa50bbc&amp;dn=Kirot+aka+A+Female+Assassin+%282009%29+%28DivX%29+RETAIL+2Lions-Team&amp;tr=udp%3A%2F%2Ftracker.openbittorrent.com%3A80&amp;tr=udp%3A%2F%2Fopen.demonii.com%3A1337&amp;tr=udp%3A%2F%2Ftracker.coppersurfer.tk%3A6969&amp;tr=udp%3A%2F%2Fexodus.desync.com%3A6969","seeders":0,"leechers":0,"uploader":null,"files":-1,"time":1281278410,"description":"Kirot aka A Female Assassin (2009)DivX RETAIL   \n\nRelease 3 augustus in de videotheek \n \nIsraÃƒÆ’Ã‚Â«l / Frankrijk / Verenigde Staten\nActie\n102 minuten\n\ngeregisseerd door Danny Lerner (I)\nmet Olga Kurylenko, Ninette Tayeb en Henry David\n\nGalia (Olga Kurylenko) wordt door een duistere organisatie gevangen genomen en gedwongen om voor deze organisatie als prostituee te werken. \nAls ze weet te ontsnappen van haar nieuwe ''werkgevers'', ontmoet ze een andere vrouw die behoorlijk is misbruikt. \nSamen besluiten ze wraak te nemen...\n\nEnglish:\n\nIn an old apartment building on the wrong side of the tracks, two women, unknown to each other, live across the hall on the second floor. \nGalia is an assassin involved against her will with the local sex-traffic mafia. \nAll she wants is to reunite with her little daughter that she left back home in Russia. Eleanor is a grocery store cashier and a battered wife. \nShe dreams of winning the lottery and running away from her abusive husband. Galia and Eleanor don't know each other, \nbut as neighbors they share two things: an adjoining wall and a strong need to plan their escape. As Galia disobeys her latest contract, \na woman target, and Eleanor discovers that she's pregnant, the two women decide to take action against their oppressors \nin a fight for survival and freedom. \n\n\ninfo:\n\nFormaat.........................: DivX \nBron............................: Retail\nOndertitels.....................: Nederlands (ingebakken) \nCover...........................: Yes Meegepost \n\nFormat                           : AVI\nFormat/Info                      : Audio Video Interleave\nFile size                        : 699 MiB\nDuration                         : 1h 44mn\nOverall bit rate                 : 939 Kbps\nWriting application              : FairUse Wizard \n\nVideo\nID                               : 0\nFormat                           : AVC\nFormat/Info                      : Advanced Video Codec\nFormat profile                   : &lt;a class=&quot;__cf_email__&quot; href=&quot;/cdn-cgi/l/email-protection&quot; data-cfemail=&quot;064b676f68464a332837&quot;&gt;[email&amp;#160;protected]&lt;/a&gt;&lt;script data-cfhash='f9e31' type=&quot;text/javascript&quot;&gt;\n/* &lt;![CDATA[ */!function(){try{var t=&quot;currentScript&quot;in document?document.currentScript:function(){for(var t=document.getElementsByTagName(&quot;script&quot;),e=t.length;e--;)if(t[e].getAttribute(&quot;data-cfhash&quot;))return t[e]}();if(t&amp;&amp;t.previousSibling){var e,r,n,i,c=t.previousSibling,a=c.getAttribute(&quot;data-cfemail&quot;);if(a){for(e=&quot;&quot;,r=parseInt(a.substr(0,2),16),n=2;a.length-n;n+=2)i=parseInt(a.substr(n,2),16)^r,e+=String.fromCharCode(i);e=document.createTextNode(e),c.parentNode.replaceChild(e,c)}t.parentNode.removeChild(t);}}catch(u){}}()/* ]]&gt; */&lt;/script&gt;\nFormat settings, CABAC           : Yes\nFormat settings, ReFrames        : 2 frames\nCodec ID                         : H264\nDuration                         : 1h 44mn\nBit rate                         : 737 Kbps\nWidth                            : 544 pixels\nHeight                           : 304 pixels\nDisplay aspect ratio             : 16:9\nFrame rate                       : 25.000 fps\nColor space                      : YUV\nChroma subsampling               : 4:2:0\nBit depth                        : 8 bits\nScan type                        : Progressive\nBits/(Pixel*Frame)               : 0.178\nStream size                      : 549 MiB (79%)\nWriting library                  : x264 core 58 svn-736bm\n\n\nAudio\nID                               : 1\nFormat                           : AC-3\nFormat/Info                      : Audio Coding 3\nMode extension                   : CM (complete main)\nCodec ID                         : 2000\nDuration                         : 1h 44mn\nBit rate mode                    : Constant\nBit rate                         : 192 Kbps\nChannel(s)                       : 2 channels\nChannel positions                : Front: L R\nSampling rate                    : 48.0 KHz\nBit depth                        : 16 bits\nStream size                      : 143 MiB (20%)\nAlignment                        : Split accross interleaves\nInterleave, duration             : 40 ms (1.00 video frame)\nInterleave, preload duration     : 500 ms\n &lt;a href=&quot;\nhttp://www.moviemeter.nl/film/52540&quot; rel=&quot;nofollow&quot; target=&quot;_NEW&quot;&gt;\nhttp://www.moviemeter.nl/film/52540&lt;/a&gt;\nhttp://www.imdb.com/title/tt1198153 \n\n \n*****************************************\n\n","torrent":{"xt":"urn:btih:6681c011c4da4f22c169ea2e17c7cb26caa50bbc","amp;dn":"Kirot+aka+A+Female+Assassin+%282009%29+%28DivX%29+RETAIL+2Lions-Team","amp;tr":["udp%3A%2F%2Ftracker.openbittorrent.com%3A80","udp%3A%2F%2Fopen.demonii.com%3A1337","udp%3A%2F%2Ftracker.coppersurfer.tk%3A6969","udp%3A%2F%2Fexodus.desync.com%3A6969"],"infoHash":"6681c011c4da4f22c169ea2e17c7cb26caa50bbc","infoHashBuffer":{"type":"Buffer","data":[102,129,192,17,196,218,79,34,193,105,234,46,23,199,203,38,202,165,11,188]},"announce":[],"urlList":[]}}